<svg width="32" height="32" viewBox="0 0 32 32" fill="none" xmlns="http://www.w3.org/2000/svg">
<path d="M15.7326 12.0587L16.2323 15.848C18.7134 16.2668 19.6344 16.7497 21.9956 17.9481C24.27 19.488 25.8182 20.6441 27.5346 23.955C25.1691 24.9637 23.5431 25.1422 20.0177 24.653L17.4932 26.7988C22.9481 28.5912 25.9879 28.8828 31.3222 25.906C29.7759 20.6972 28.4237 18.5354 25.3305 15.748C21.9428 13.1691 18.909 12.2771 15.7326 12.0587Z" fill="currentColor"/>
<path d="M10.3929 21.0612L13.0586 18.8162C12.2813 16.411 12.228 15.1747 12.1939 12.5161C12.5012 9.77696 13.0883 7.76818 15.2158 4.70789C17.199 6.35019 18.108 7.71712 19.3059 11.0857L22.3657 12.3442C21.4257 6.65335 20.2779 3.80896 15.1864 0.429934C11.3059 4.21584 10.0237 6.4204 8.99444 10.466C7.94345 13.8196 9.38429 19.5404 10.3929 21.0612Z" fill="currentColor"/>
<path d="M20.3573 21.9136L18.3896 19.6141C16.6093 21.4011 14.68 22.6508 12.3381 23.8867C9.76993 24.8532 7.54657 25.1792 3.86846 24.6606C4.42554 22.1391 5.22551 20.705 7.66937 18.1045L7.39807 14.7924C2.77811 18.2148 0.776293 20.5327 0.0884653 26.6265C5.20479 28.3868 7.7409 28.536 11.7948 27.624C15.449 26.5638 18.1734 24.8281 20.3573 21.9136Z" fill="currentColor"/>
<path d="M15.5802 26.0592C20.7672 23.0177 22.3817 19.5752 22.2779 13.8171C17.6695 11.3588 13.8258 11.3845 8.66424 14.2128C9.18469 20.6636 11.2288 23.7587 15.5802 26.0592Z" fill="currentColor"/>
</svg>